<mxfile host="Electron" modified="2023-07-22T12:33:47.349Z" agent="Mozilla/5.0 (Macintosh; Intel Mac OS X 10_15_7) AppleWebKit/537.36 (KHTML, like Gecko) draw.io/21.6.1 Chrome/112.0.5615.204 Electron/24.6.1 Safari/537.36" etag="OmHbS6M9ldZtTevWg-Vs" version="21.6.1" type="device">
  <diagram name="第 1 页" id="xbgro5ouO3XDIeHeY2uS">
    <mxGraphModel dx="912" dy="883" grid="1" gridSize="10" guides="1" tooltips="1" connect="1" arrows="1" fold="1" page="0" pageScale="1" pageWidth="1169" pageHeight="1654" math="0" shadow="0">
      <root>
        <mxCell id="0" />
        <mxCell id="1" parent="0" />
        <mxCell id="B82-c6zQIxuSV6l_Cpcr-1" value="玩家体验" style="swimlane;whiteSpace=wrap;html=1;fontSize=16;fillColor=#f8cecc;strokeColor=#b85450;" vertex="1" parent="1">
          <mxGeometry x="40" width="190" height="360" as="geometry" />
        </mxCell>
        <mxCell id="B82-c6zQIxuSV6l_Cpcr-2" value="新鲜感、沉浸体验" style="rounded=0;whiteSpace=wrap;html=1;fontSize=16;fillColor=#f8cecc;strokeColor=#b85450;" vertex="1" parent="B82-c6zQIxuSV6l_Cpcr-1">
          <mxGeometry x="20" y="40" width="150" height="60" as="geometry" />
        </mxCell>
        <mxCell id="B82-c6zQIxuSV6l_Cpcr-3" value="枯燥、缺乏挑战" style="rounded=0;whiteSpace=wrap;html=1;fontSize=16;fillColor=#f8cecc;strokeColor=#b85450;" vertex="1" parent="B82-c6zQIxuSV6l_Cpcr-1">
          <mxGeometry x="20" y="120" width="150" height="60" as="geometry" />
        </mxCell>
        <mxCell id="B82-c6zQIxuSV6l_Cpcr-4" value="挑战性、成就感" style="rounded=0;whiteSpace=wrap;html=1;fontSize=16;fillColor=#f8cecc;strokeColor=#b85450;" vertex="1" parent="B82-c6zQIxuSV6l_Cpcr-1">
          <mxGeometry x="20" y="200" width="150" height="60" as="geometry" />
        </mxCell>
        <mxCell id="B82-c6zQIxuSV6l_Cpcr-5" value="挫败感" style="rounded=0;whiteSpace=wrap;html=1;fontSize=16;fillColor=#f8cecc;strokeColor=#b85450;" vertex="1" parent="B82-c6zQIxuSV6l_Cpcr-1">
          <mxGeometry x="20" y="280" width="150" height="60" as="geometry" />
        </mxCell>
        <mxCell id="B82-c6zQIxuSV6l_Cpcr-6" value="玩家体验" style="swimlane;whiteSpace=wrap;html=1;fontSize=16;fillColor=#dae8fc;strokeColor=#6c8ebf;" vertex="1" parent="1">
          <mxGeometry x="320" width="200" height="280" as="geometry" />
        </mxCell>
        <mxCell id="B82-c6zQIxuSV6l_Cpcr-7" value="剧情类关卡" style="rounded=0;whiteSpace=wrap;html=1;fontSize=16;fillColor=#dae8fc;strokeColor=#6c8ebf;" vertex="1" parent="B82-c6zQIxuSV6l_Cpcr-6">
          <mxGeometry x="20" y="40" width="150" height="60" as="geometry" />
        </mxCell>
        <mxCell id="B82-c6zQIxuSV6l_Cpcr-8" value="资源类关卡" style="rounded=0;whiteSpace=wrap;html=1;fontSize=16;fillColor=#dae8fc;strokeColor=#6c8ebf;" vertex="1" parent="B82-c6zQIxuSV6l_Cpcr-6">
          <mxGeometry x="20" y="120" width="150" height="60" as="geometry" />
        </mxCell>
        <mxCell id="B82-c6zQIxuSV6l_Cpcr-9" value="挑战类关卡" style="rounded=0;whiteSpace=wrap;html=1;fontSize=16;fillColor=#dae8fc;strokeColor=#6c8ebf;" vertex="1" parent="B82-c6zQIxuSV6l_Cpcr-6">
          <mxGeometry x="20" y="200" width="150" height="60" as="geometry" />
        </mxCell>
        <mxCell id="B82-c6zQIxuSV6l_Cpcr-11" value="" style="endArrow=classic;html=1;rounded=0;fontSize=12;startSize=8;endSize=8;curved=1;entryX=1;entryY=0.5;entryDx=0;entryDy=0;exitX=0;exitY=0.5;exitDx=0;exitDy=0;" edge="1" parent="1" source="B82-c6zQIxuSV6l_Cpcr-9" target="B82-c6zQIxuSV6l_Cpcr-4">
          <mxGeometry width="50" height="50" relative="1" as="geometry">
            <mxPoint x="260" y="230" as="sourcePoint" />
            <mxPoint x="310" y="180" as="targetPoint" />
          </mxGeometry>
        </mxCell>
        <mxCell id="B82-c6zQIxuSV6l_Cpcr-12" value="" style="endArrow=none;html=1;rounded=0;fontSize=12;startSize=8;endSize=8;curved=1;" edge="1" parent="1">
          <mxGeometry width="50" height="50" relative="1" as="geometry">
            <mxPoint x="280" y="230" as="sourcePoint" />
            <mxPoint x="280" y="310" as="targetPoint" />
          </mxGeometry>
        </mxCell>
        <mxCell id="B82-c6zQIxuSV6l_Cpcr-13" value="" style="endArrow=classic;html=1;rounded=0;fontSize=12;startSize=8;endSize=8;curved=1;entryX=1;entryY=0.5;entryDx=0;entryDy=0;" edge="1" parent="1" target="B82-c6zQIxuSV6l_Cpcr-5">
          <mxGeometry width="50" height="50" relative="1" as="geometry">
            <mxPoint x="280" y="310" as="sourcePoint" />
            <mxPoint x="310" y="180" as="targetPoint" />
          </mxGeometry>
        </mxCell>
        <mxCell id="B82-c6zQIxuSV6l_Cpcr-15" value="" style="endArrow=none;html=1;rounded=0;fontSize=12;startSize=8;endSize=8;curved=1;exitX=1.002;exitY=0.817;exitDx=0;exitDy=0;exitPerimeter=0;" edge="1" parent="1" source="B82-c6zQIxuSV6l_Cpcr-5">
          <mxGeometry width="50" height="50" relative="1" as="geometry">
            <mxPoint x="400" y="230" as="sourcePoint" />
            <mxPoint x="640" y="330" as="targetPoint" />
          </mxGeometry>
        </mxCell>
        <mxCell id="B82-c6zQIxuSV6l_Cpcr-22" style="edgeStyle=none;curved=1;rounded=0;orthogonalLoop=1;jettySize=auto;html=1;exitX=0;exitY=0.5;exitDx=0;exitDy=0;fontSize=12;startSize=8;endSize=8;" edge="1" parent="1" source="B82-c6zQIxuSV6l_Cpcr-8" target="B82-c6zQIxuSV6l_Cpcr-3">
          <mxGeometry relative="1" as="geometry" />
        </mxCell>
        <mxCell id="B82-c6zQIxuSV6l_Cpcr-23" style="edgeStyle=none;curved=1;rounded=0;orthogonalLoop=1;jettySize=auto;html=1;exitX=0;exitY=0.5;exitDx=0;exitDy=0;entryX=1;entryY=0.5;entryDx=0;entryDy=0;fontSize=12;startSize=8;endSize=8;" edge="1" parent="1" source="B82-c6zQIxuSV6l_Cpcr-7" target="B82-c6zQIxuSV6l_Cpcr-2">
          <mxGeometry relative="1" as="geometry" />
        </mxCell>
        <mxCell id="B82-c6zQIxuSV6l_Cpcr-30" style="edgeStyle=none;curved=1;rounded=0;orthogonalLoop=1;jettySize=auto;html=1;exitX=0.5;exitY=1;exitDx=0;exitDy=0;entryX=0.5;entryY=0;entryDx=0;entryDy=0;fontSize=12;startSize=8;endSize=8;" edge="1" parent="1" source="B82-c6zQIxuSV6l_Cpcr-24" target="B82-c6zQIxuSV6l_Cpcr-25">
          <mxGeometry relative="1" as="geometry" />
        </mxCell>
        <mxCell id="B82-c6zQIxuSV6l_Cpcr-24" value="资源" style="whiteSpace=wrap;html=1;fontSize=16;fillColor=#ffe6cc;strokeColor=#d79b00;" vertex="1" parent="1">
          <mxGeometry x="600" y="50" width="80" height="40" as="geometry" />
        </mxCell>
        <mxCell id="B82-c6zQIxuSV6l_Cpcr-29" style="edgeStyle=none;curved=1;rounded=0;orthogonalLoop=1;jettySize=auto;html=1;exitX=0;exitY=0.5;exitDx=0;exitDy=0;fontSize=12;startSize=8;endSize=8;" edge="1" parent="1" source="B82-c6zQIxuSV6l_Cpcr-25">
          <mxGeometry relative="1" as="geometry">
            <mxPoint x="520" y="160" as="targetPoint" />
          </mxGeometry>
        </mxCell>
        <mxCell id="B82-c6zQIxuSV6l_Cpcr-25" value="角色" style="whiteSpace=wrap;html=1;fontSize=16;fillColor=#fff2cc;strokeColor=#d6b656;" vertex="1" parent="1">
          <mxGeometry x="600" y="140" width="80" height="40" as="geometry" />
        </mxCell>
        <mxCell id="B82-c6zQIxuSV6l_Cpcr-26" value="" style="endArrow=classic;html=1;rounded=0;fontSize=12;startSize=8;endSize=8;curved=1;entryX=0;entryY=0.5;entryDx=0;entryDy=0;exitX=1;exitY=0.25;exitDx=0;exitDy=0;" edge="1" parent="1" source="B82-c6zQIxuSV6l_Cpcr-6" target="B82-c6zQIxuSV6l_Cpcr-24">
          <mxGeometry width="50" height="50" relative="1" as="geometry">
            <mxPoint x="450" y="230" as="sourcePoint" />
            <mxPoint x="500" y="180" as="targetPoint" />
          </mxGeometry>
        </mxCell>
        <mxCell id="B82-c6zQIxuSV6l_Cpcr-31" value="活动" style="text;html=1;strokeColor=none;fillColor=none;align=center;verticalAlign=middle;whiteSpace=wrap;rounded=0;fontSize=16;" vertex="1" parent="1">
          <mxGeometry x="530" y="40" width="60" height="30" as="geometry" />
        </mxCell>
        <mxCell id="B82-c6zQIxuSV6l_Cpcr-32" value="培养" style="text;html=1;align=center;verticalAlign=middle;resizable=0;points=[];autosize=1;strokeColor=none;fillColor=none;fontSize=16;" vertex="1" parent="1">
          <mxGeometry x="635" y="98" width="60" height="30" as="geometry" />
        </mxCell>
        <mxCell id="B82-c6zQIxuSV6l_Cpcr-33" value="战斗" style="text;html=1;align=center;verticalAlign=middle;resizable=0;points=[];autosize=1;strokeColor=none;fillColor=none;fontSize=16;" vertex="1" parent="1">
          <mxGeometry x="530" y="118" width="60" height="30" as="geometry" />
        </mxCell>
        <mxCell id="B82-c6zQIxuSV6l_Cpcr-34" value="" style="endArrow=classic;html=1;rounded=0;fontSize=12;startSize=8;endSize=8;curved=1;entryX=0.5;entryY=1;entryDx=0;entryDy=0;" edge="1" parent="1" target="B82-c6zQIxuSV6l_Cpcr-25">
          <mxGeometry width="50" height="50" relative="1" as="geometry">
            <mxPoint x="640" y="330" as="sourcePoint" />
            <mxPoint x="500" y="180" as="targetPoint" />
          </mxGeometry>
        </mxCell>
        <mxCell id="B82-c6zQIxuSV6l_Cpcr-35" value="促使玩家提升角色练度" style="text;html=1;strokeColor=none;fillColor=none;align=center;verticalAlign=middle;whiteSpace=wrap;rounded=0;fontSize=16;" vertex="1" parent="1">
          <mxGeometry x="370" y="300" width="170" height="30" as="geometry" />
        </mxCell>
        <mxCell id="B82-c6zQIxuSV6l_Cpcr-36" value="重复" style="text;html=1;strokeColor=none;fillColor=none;align=center;verticalAlign=middle;whiteSpace=wrap;rounded=0;fontSize=16;" vertex="1" parent="1">
          <mxGeometry x="250" y="118" width="60" height="30" as="geometry" />
        </mxCell>
      </root>
    </mxGraphModel>
  </diagram>
</mxfile>
